<svg xmlns="http://www.w3.org/2000/svg" width="1200" height="630" viewBox="0 0 1200 630">
  <defs>
    <radialGradient id="bg"><stop stop-color="#1b2530"/><stop offset="1" stop-color="#07090b"/></radialGradient>
    <linearGradient id="glass" x1="0" y1="0" x2="1" y2="1"><stop stop-color="#fff" stop-opacity=".25"/><stop offset="1" stop-color="#fff" stop-opacity=".02"/></linearGradient>
  </defs>
  <rect width="1200" height="630" fill="url(#bg)"/>
  <g opacity=".12" stroke="#81909c"><path d="M0 80h1200M0 160h1200M0 240h1200M0 320h1200M0 400h1200M0 480h1200M0 560h1200"/><path d="M100 0v630M200 0v630M300 0v630M400 0v630M500 0v630M600 0v630M700 0v630M800 0v630M900 0v630M1000 0v630M1100 0v630"/></g>
  <path d="M55 278H445" stroke="#fff" stroke-width="5"/>
  <path d="M570 95L760 470H380Z" fill="url(#glass)" stroke="#cbd3d9" stroke-opacity=".6" stroke-width="2"/>
  <g fill="none" stroke-width="4"><path d="M570 278L1000 180" stroke="#74a9d8"/><path d="M570 278L1000 230" stroke="#8079bb"/><path d="M570 278L1000 280" stroke="#9b70ac"/><path d="M570 278L1000 330" stroke="#bd747c"/><path d="M570 278L1000 380" stroke="#d28a5b"/></g>
  <g fill="#e8e9e5" font-family="Arial, sans-serif" font-size="18"><text x="1020" y="186">Fundamentals</text><text x="1020" y="236">Technicals</text><text x="1020" y="286">Valuation</text><text x="1020" y="336">Risk</text><text x="1020" y="386">Discipline</text></g>
  <text x="58" y="548" fill="#f1f2ee" font-family="Arial, sans-serif" font-size="48" font-weight="500" letter-spacing="-2">Luna1 Research</text>
  <text x="60" y="582" fill="#aab0b4" font-family="Arial, sans-serif" font-size="17" letter-spacing="3">DISCIPLINE. EVIDENCE. EVOLUTION.</text>
</svg>
